<?xml version="1.0" encoding="UTF-8" standalone="no"?>
<svg
        xmlns="http://www.w3.org/2000/svg"
        id="ae17259d-43ff-416a-850d-3ae84d603a75"
        data-name="Layer 1"
        width="7689.3701"
        height="7770.3135"
        viewBox="0 0 7689.3703 7770.3137"
        version="1.1">
  <metadata
     id="metadata354">
  </metadata>
  <defs
     id="defs352" />
  <title
     id="title187">sunlight</title>
  <path
     d="m 7238.8913,3880.3101 c -0.519,1.3014 -6.618,11.8334 -53.206,55.0254 a 626.28935,571.10601 0 0 0 53.206,-55.0254 z"
     fill="#d0cde1"
     id="path209"
     style="stroke-width:11.2268" />
  <ellipse
     cx="6337.354"
     cy="1217.7802"
     fill="#ff6584"
     id="circle219"
     style="fill:#ffcc00;stroke-width:11.2268"
     rx="1069.8566"
     ry="975.58984" />
  <path
     d="m 4799.1383,3566.8378 c 358.312,-870.468 709.351,-1455.7255 709.351,-1455.7255 l -365.549,-198.3157 c -380.63,523.3928 -668.314,1089.1473 -885.533,1654.0412 z"
     fill="#3f3d56"
     id="path225"
     style="stroke-width:11.2268" />
  <path
     d="m 4216.1173,3676.5446 q -76.476,207.4077 -140.857,413.5107 h 521.88 c 51.591,-143.1619 104.435,-281.3169 157.445,-413.5107 z"
     fill="#3f3d56"
     id="path231"
     style="stroke-width:11.2268" />
  <path
     d="m 3900.5383,4722.9785 q -50.497,210.2086 -90.371,413.511 h 466.855 q 52.291,-210.244 112.492,-413.511 z"
     fill="#3f3d56"
     id="path233"
     style="stroke-width:11.2268" />
  <path
     d="m 4041.5883,4199.7615 q -62.621,208.6836 -114.025,413.511 h 494.947 q 65.02,-212.0397 135.696,-413.511 z"
     fill="#3f3d56"
     id="path237"
     style="stroke-width:11.2268" />
  <path
     d="m 7689.3703,2490.2856 c -181.165,-345.3355 -363.395,-602.9137 -541.037,-792.7222 l -92.765,129.9679 7.888,-215.89 a 1860.153,1696.252 0 0 0 -195.846,-163.8016 l -126.774,177.6112 9.282,-253.9767 a 1165.5607,1062.8613 0 0 0 -240.813,-108.4135 l -93.758,131.3565 5.685,-155.5546 c -323.482,-74.0269 -589.277,27.3741 -743.266,113.951 l -92.479,-12.5812 158.601,-60.3952 a 1165.5899,1062.888 0 0 0 -73.493,-235.5509 l -275.622,-37.4958 214.449,-81.663 A 1860.0624,1696.1693 0 0 0 5468.0753,719.916 l -234.29,-31.8728 156.925,-59.7576 C 5218.0243,434.7114 4973.0693,224.7941 4633.2663,0 c 0,0 -25.139,200.2271 -39.142,479.3976 l 230.137,214.6834 -236.439,-55.7604 c -2.474,85.7404 -3.532,176.0087 -2.367,268.1062 l 169.719,158.3237 -166.95,-39.3728 c 2.433,70.423 6.363,141.2083 12.09,211.1991 a 914.06195,833.52253 0 0 0 -439.525,2.286 l 5.684,155.5546 -93.757,-131.3564 a 1165.5636,1062.864 0 0 0 -240.814,108.4136 l 9.282,253.9767 -126.773,-177.6113 a 1860.1535,1696.2525 0 0 0 -195.846,163.8014 l 7.889,215.8901 -92.766,-129.9679 c -177.641,189.8085 -359.871,447.3867 -541.036,792.7222 0,0 220.506,-13.5768 524.154,-51.3839 l 190.045,-245.1467 -17.488,222.1271 c 92.928,-13.2498 190.485,-28.5856 289.614,-46.2455 l 140.153,-180.7902 -12.349,156.8455 c 138.259,-27.2538 276.939,-59.1787 407.931,-96.3691 l 94.059,79.7882 -168.255,-31.9958 a 1165.5943,1062.892 0 0 0 -85.497,232.1575 l 204.04,173.0807 -227.502,-43.2628 a 1860.0926,1696.1969 0 0 0 -10.72,242.1357 l 173.441,147.1255 -166.476,-31.6575 c 22.341,248.7017 94.144,548.1564 234.939,908.8004 0,0 144.925,-152.1555 329.632,-375.1578 l -56.627,-295.7414 160.398,167.9329 c 55.221,-69.4316 112.085,-143.3274 168.25,-219.8777 l -41.762,-218.1034 113.259,118.579 c 113.741,-161.9297 220.108,-331.7864 298.461,-493.5668 a 4527.2861,4128.3796 0 0 0 324.974,345.4037 l 86.764,-135.8942 3.991,221.3724 c 70.958,65.5459 142.055,128.3645 210.617,187.0803 l 122.879,-192.4561 5.412,300.1754 c 227.424,187.3239 401.157,311.8947 401.157,311.8947 63.861,-378.3607 72.589,-684.7868 43.21,-932.8792 l -156.969,59.6573 139.983,-174.2581 a 1860.1554,1696.2542 0 0 0 -60.493,-235.9705 l -214.512,81.5265 102.007,-126.9808 q 65.741,14.4533 131.868,27.4608 l -12.349,-156.8455 140.153,180.7902 c 99.129,17.6597 196.686,32.9957 289.615,46.2455 l -17.489,-222.1271 190.045,245.1467 c 303.649,37.8071 524.155,51.3839 524.155,51.3839 z"
     fill="#6c63ff"
     id="path239"
     style="stroke-width:11.2268" />
  <path
     d="M 2169.9991,3960.6879 C 1917.0726,3346.2394 1669.2797,2933.116 1669.2797,2933.116 l 258.0354,-139.9881 c 268.6805,369.4542 471.7518,768.8108 625.083,1167.56 z"
     fill="#3f3d56"
     id="path245"
     style="stroke-width:11.2268" />
  <path
     d="m 2581.5437,4038.128 q 53.983,146.4057 99.4281,291.8898 h -368.3862 c -36.4169,-101.0556 -73.7191,-198.5767 -111.1376,-291.8898 z"
     fill="#3f3d56"
     id="path251"
     style="stroke-width:11.2268" />
  <path
     d="m 2804.3053,4776.7883 q 35.645,148.3828 63.791,291.8899 h -329.5442 q -36.9117,-148.4076 -79.4063,-291.8899 z"
     fill="#3f3d56"
     id="path253"
     style="stroke-width:11.2268" />
  <path
     d="m 2704.7406,4407.458 q 44.2037,147.3061 80.4886,291.89 h -349.3755 q -45.8959,-149.6752 -95.7846,-291.89 z"
     fill="#3f3d56"
     id="path257"
     style="stroke-width:11.2268" />
  <path
     d="m 129.83244,3200.7678 c 127.8819,-243.7666 256.5149,-425.5866 381.909,-559.5695 l 65.4815,91.7422 -5.5684,-152.3932 a 1313.0419,1197.3477 0 0 1 138.2445,-115.6246 l 89.4874,125.373 -6.5517,-179.2779 a 822.74816,750.25456 0 0 1 169.9861,-76.5272 l 66.18166,92.7223 -4.0126,-109.8033 c 228.3404,-52.2541 415.9607,19.3228 524.659,80.4357 l 65.2798,-8.881 -111.9541,-42.6318 a 822.77544,750.27941 0 0 1 51.8774,-166.2714 l 194.5564,-26.4678 -151.3756,-57.6442 a 1312.9844,1197.2953 0 0 1 99.775,-144.8553 l 165.381,-22.4988 -110.7713,-42.1814 c 121.8965,-136.6409 294.8059,-284.818 534.6676,-443.4967 0,0 17.745,141.3369 27.6291,338.3986 l -162.4496,151.5414 166.8977,-39.3604 c 1.7463,60.5226 2.4935,124.2414 1.6713,189.2516 l -119.8023,111.758 117.847,-27.7925 c -1.7164,49.7104 -4.491,99.6765 -8.5339,149.082 a 645.22027,588.3689 0 0 1 310.2536,1.6136 l -4.0126,109.8033 66.1816,-92.7223 a 822.74522,750.25185 0 0 1 169.9863,76.5272 l -6.552,179.2779 89.487,-125.3732 a 1313.0652,1197.369 0 0 1 138.245,115.6248 l -5.568,152.3932 65.481,-91.7422 c 125.394,133.9829 254.027,315.8029 381.908,559.5695 0,0 -155.651,-9.5837 -369.991,-36.2712 l -134.15,-173.0449 12.344,156.7957 c -65.596,-9.3528 -134.46,-20.1779 -204.433,-32.6438 l -98.9317,-127.6167 8.7165,110.7144 c -97.5939,-19.2378 -195.4861,-41.7735 -287.9512,-68.0253 l -66.3945,56.3212 118.7681,-22.5853 a 822.7697,750.27417 0 0 1 60.351,163.8762 l -144.0273,122.175 160.5901,-30.5384 a 1313.0179,1197.3259 0 0 1 7.5667,170.9194 l -122.4291,103.8535 117.5122,-22.3465 c -15.77,175.5545 -66.4545,386.9338 -165.8394,641.5068 0,0 -102.2998,-107.4039 -232.6816,-264.8173 l 39.972,-208.7591 -113.2221,118.5416 c -38.98,-49.0107 -79.1193,-101.1721 -118.765,-155.208 l 29.4785,-153.9552 -79.947,83.7027 a 2910.9629,2654.4733 0 0 1 -210.6788,-348.4008 3195.7362,2914.1549 0 0 1 -229.3928,243.8149 l -61.2457,-95.9255 -2.8173,156.263 c -50.088,46.2679 -100.2743,90.6104 -148.6709,132.0569 l -86.7387,-135.8516 -3.8196,211.8886 c -160.535,132.2294 -283.17096,220.1619 -283.17096,220.1619 -45.0778,-267.0785 -51.2388,-483.3796 -30.5008,-658.504 l 110.8018,42.1113 -98.8117,-123.0059 a 1313.0564,1197.3609 0 0 1 42.7002,-166.5678 l 151.42036,57.5483 -72.0046,-89.6337 q -46.40536,10.2023 -93.08366,19.3839 l 8.7168,-110.7144 -98.9315,127.6167 c -69.9734,12.4658 -138.8377,23.2912 -204.4341,32.644 l 12.3445,-156.7959 -134.1497,173.0451 c -214.3393,26.6869 -369.9909,36.2706 -369.9909,36.2706 z"
     fill="#6c63ff"
     id="path259"
     style="stroke-width:11.2268" />
  <path
     d="m 2335.4414,763.8757 a 74.718665,68.135089 0 0 1 -33.2712,55.8552 l -2.8218,1.6081 H 1043.7366 l 5.0554,-14.0442 c 0.8229,-2.4658 92.76,-245.7205 499.6583,-198.7631 38.3267,-12.0072 412.8941,-123.5032 637.0936,1.8226 99.4614,55.5333 149.8975,107.2075 149.8975,153.5214 z"
     fill="#f1f1f1"
     id="path295"
     style="stroke-width:11.2268" />
  <path
     d="m 3625.5913,1177.4821 a 74.718665,68.135089 0 0 1 -33.272,55.8552 l -2.821,1.6081 H 2333.886 l 5.0555,-14.0442 c 0.823,-2.4658 92.76,-245.7204 499.6588,-198.7629 38.326,-12.0073 412.893,-123.5032 637.093,1.8225 99.462,55.5333 149.898,107.2075 149.898,153.5213 z"
     fill="#f1f1f1"
     id="path297"
     style="stroke-width:11.2268" />
  <path
     d="m 4374.3823,603.7053 a 74.718665,68.135089 0 0 1 -33.271,55.8553 l -2.821,1.6081 h -1255.612 l 5.055,-14.0442 c 0.823,-2.4658 92.76,-245.72 499.658,-198.7631 38.327,-12.0073 412.895,-123.5032 637.094,1.8225 99.461,55.5335 149.897,107.2077 149.897,153.5214 z"
     fill="#f1f1f1"
     id="path299"
     style="stroke-width:11.2268" />
  <path
     d="m 2887.9153,5149.0034 q 35.645,148.3827 63.791,291.89 h -329.5441 q -36.9117,-148.4076 -79.4063,-291.89 z"
     fill="#3f3d56"
     id="path253-7"
     style="stroke-width:11.2268" />
  <path
     d="m 3781.5093,5224.7014 q -50.497,210.2086 -90.37,413.511 h 466.854 q 52.292,-210.2444 112.492,-413.511 z"
     fill="#3f3d56"
     id="path233-0"
     style="stroke-width:11.2268" />
  <path
     d="m 3673.6063,5700.9379 q -50.497,210.2084 -90.37,413.511 h 466.854 q 52.291,-210.2439 112.492,-413.511 z"
     fill="#3f3d56"
     id="path233-3"
     style="stroke-width:11.2268" />
  <path
     d="m 3570.0193,6181.1103 q -50.497,210.2086 -90.371,413.5106 h 466.854 q 52.292,-210.244 112.493,-413.5106 z"
     fill="#3f3d56"
     id="path233-08"
     style="stroke-width:11.2268" />
  <path
     d="m 2970.1663,5508.8708 q 35.645,148.3824 63.791,291.8901 h -329.544 q -36.9119,-148.4076 -79.4063,-291.8901 z"
     fill="#3f3d56"
     id="path253-7-4"
     style="stroke-width:11.2268" />
  <path
     d="m 3051.0943,5868.0158 q 35.645,148.3827 63.791,291.89 H 2785.341 q -36.9119,-148.4076 -79.4063,-291.89 z"
     fill="#3f3d56"
     id="path253-7-5"
     style="stroke-width:11.2268" />
  <path
     d="m 3131.3323,6227.2578 q 35.645,148.3829 63.791,291.89 h -329.544 q -36.912,-148.4076 -79.4062,-291.89 z"
     fill="#3f3d56"
     id="path253-7-5-8"
     style="stroke-width:11.2268" />
  <path
     d="m 3201.5273,6568.182 q 35.645,148.3828 63.791,291.8901 h -329.544 q -36.911,-148.4076 -79.406,-291.8901 z"
     fill="#3f3d56"
     id="path253-7-5-8-1"
     style="stroke-width:11.2268" />
  <path
     style="opacity:1;fill:#ffeeaa;fill-opacity:1;stroke:#ffeeaa;stroke-width:11.2268;stroke-opacity:1"
     d="M 2642.9617,7757.994 C 1287.8113,7725.5197 236.74934,7584.557 38.12004,7408.648 c -98.286,-87.0434 26.7506,-173.9349 368.399,-256.0109 385.6119,-92.6378 1032.83386,-160.4559 1895.46766,-198.6135 304.9172,-13.4873 1514.1386,-13.4382 1812.7786,0.075 739.257,33.4478 1274.184,83.1066 1678.979,155.8635 439.949,79.076 653.075,174.0845 602.81,268.7258 -129.424,243.6858 -1908.967,423.5119 -3753.5926,379.3076 z"
     id="path534" />
  <path
     d="m 3278.8293,6898.5512 q 35.645,158.2863 63.791,311.3714 h -329.544 q -36.912,-158.3128 -79.406,-311.3714 z"
     fill="#3f3d56"
     id="path253-7-5-8-1-7-7"
     style="stroke-width:11.5954" />
  <path
     d="m 3467.5103,6650.5049 q -50.497,285.1912 -90.37,561.0127 h 466.854 q 52.292,-285.2395 112.492,-561.0127 z"
     fill="#3f3d56"
     id="path233-08-9-2"
     style="stroke-width:13.0767" />
</svg>
